<svg width="43" height="41" viewBox="0 0 43 41" fill="none" xmlns="http://www.w3.org/2000/svg">
<path d="M42.0887 25.854C38.7556 34.4688 30.5921 40.564 21.0436 40.5641C11.4954 40.5639 3.3331 34.4685 0 25.854L4.78332 23.8834C7.36172 30.5478 13.6735 35.2502 21.0436 35.2504C28.4138 35.2504 34.7269 30.548 37.3054 23.8834L42.0887 25.854ZM21.0436 0C30.6896 8.19935e-05 38.5103 7.83896 38.5106 17.5092C38.5106 19.7569 38.0871 21.906 37.3174 23.8804L32.1861 21.8707C30.4424 26.3432 26.103 29.4968 21.0436 29.4969C15.9845 29.4966 11.6463 26.343 9.9026 21.8707L4.77127 23.8804C4.00161 21.906 3.57807 19.7569 3.57807 17.5092C3.57837 7.83912 11.3978 0.000344619 21.0436 0Z" fill="#0033FF"/>
</svg>
