<svg width="27" height="26" viewBox="0 0 27 26" fill="none" xmlns="http://www.w3.org/2000/svg">
<path d="M23.4352 9.18697C22.8649 9.0444 9.2966 9.89985 2.58374 10.3454V12.3949V12.7513V13.5533L7.3956 19.078L14.3461 20.1474L17.9104 19.078L24.148 13.5533C24.148 12.1573 24.0055 9.32955 23.4352 9.18697Z" fill="white"/>
<path d="M26.9772 16.5714C24.8408 22.0932 19.6083 26 13.4881 26C7.3681 25.9999 2.13639 22.093 0 16.5714L3.06592 15.3084C4.71858 19.58 8.7642 22.594 13.4881 22.5942C18.2122 22.5942 22.2586 19.5801 23.9113 15.3084L26.9772 16.5714ZM13.4881 0C19.6708 5.25547e-05 24.6836 5.02447 24.6838 11.2227C24.6838 12.6634 24.4123 14.0409 23.919 15.3064L20.63 14.0183C19.5124 16.885 16.731 18.9063 13.4881 18.9064C10.2454 18.9062 7.46481 16.8848 6.34719 14.0183L3.0582 15.3064C2.56488 14.0409 2.29341 12.6634 2.29341 11.2227C2.2936 5.02458 7.30558 0.000220888 13.4881 0Z" fill="black"/>
</svg>
