<svg width="115" height="83" viewBox="0 0 115 83" fill="none" xmlns="http://www.w3.org/2000/svg">
<path d="M71.5048 24.6025C72.1728 23.4204 73.594 22.7933 74.8495 23.3105C76.0671 23.8123 76.6729 25.2027 76.0693 26.373L75.7245 27.0146C72.0624 33.5708 65.1991 37.9892 57.332 37.9893V36.9893C65.0524 36.9892 71.775 32.5142 75.1806 25.915C75.483 25.3291 75.2133 24.5412 74.4687 24.2344C73.7597 23.9423 72.8396 24.2719 72.3749 25.0947C69.3683 30.4183 63.7625 34.0126 57.332 34.0127C50.9015 34.0125 45.2964 30.4182 42.29 25.0947C41.8253 24.2719 40.9052 23.9423 40.1962 24.2344C39.4516 24.5411 39.1819 25.3291 39.4843 25.915C42.8897 32.5142 49.6117 36.9891 57.332 36.9893V37.9893L56.5732 37.9756C48.7734 37.6926 42.0487 33.0646 38.5956 26.373C38.0297 25.2757 38.5268 23.9844 39.5946 23.4141L39.8154 23.3105C41.0709 22.7933 42.4921 23.4203 43.1601 24.6025C45.9129 29.4771 50.959 32.8 56.7675 33.0029L57.332 33.0127C63.188 33.0126 68.3319 29.843 71.2314 25.0703L71.5048 24.6025ZM72.6903 16.3975C72.6899 7.89129 65.8109 1.00019 57.332 1C48.8532 1.0003 41.975 7.89128 41.9745 16.3975C41.9745 17.5263 42.0965 18.6264 42.3261 19.6846C42.4747 20.368 43.2712 20.8289 44.1308 20.4922C46.0097 19.7564 47.9383 20.7513 48.9277 22.1914C50.7713 24.8749 53.8522 26.6238 57.332 26.624V27.624L56.9745 27.6191C53.2983 27.5033 50.0613 25.609 48.1025 22.7578C47.2958 21.5839 45.8213 20.9044 44.495 21.4238L44.245 21.5068C43.026 21.8465 41.7222 21.2441 41.3808 20.0244L41.3486 19.8965C41.1039 18.7692 40.9745 17.5981 40.9745 16.3975C40.975 7.34135 48.2986 0.00032274 57.332 0L57.7538 0.00488281C66.5924 0.22938 73.6899 7.48267 73.6903 16.3975L73.6835 16.8467C73.6555 17.8904 73.5304 18.9101 73.3163 19.8965L73.2841 20.0244C72.9427 21.2441 71.6388 21.8465 70.4198 21.5068L70.1698 21.4238C68.8434 20.9043 67.3681 21.5837 66.5614 22.7578C64.5391 25.7011 61.1553 27.6239 57.332 27.624V26.624C60.8119 26.6239 63.8934 24.875 65.7372 22.1914C66.7266 20.7514 68.6551 19.7564 70.5341 20.4922C71.3937 20.8289 72.1902 20.368 72.3388 19.6846C72.5684 18.6264 72.6903 17.5262 72.6903 16.3975Z" fill="url(#paint0_linear_538_350)"/>
<path d="M99.2627 51.1953C107.805 51.4121 114.664 58.4053 114.664 67C114.664 75.7312 107.586 82.8093 98.8545 82.8096H15.8105C7.07916 82.8096 0 75.7314 0 67C0 58.4051 6.85961 51.4118 15.4023 51.1953L15.8105 51.1904H98.8545L99.2627 51.1953ZM15.8105 52.1904C7.63145 52.1904 1.00098 58.8209 1.00098 67C1.00098 75.1791 7.63145 81.8096 15.8105 81.8096H98.8545C107.033 81.8093 113.664 75.1789 113.664 67C113.664 58.8211 107.033 52.1907 98.8545 52.1904H15.8105ZM27.2305 64.6484C29.2465 64.6484 30.5631 65.9221 30.6191 68.0361C30.6191 68.1901 30.6048 68.3584 30.5908 68.5264H25.0469V68.624C25.0889 69.982 25.9428 70.9336 27.3008 70.9336C28.3088 70.9336 29.0931 70.4015 29.3311 69.4775H30.4932C30.2132 70.9055 29.0368 71.9561 27.3848 71.9561C25.2428 71.9561 23.8428 70.4858 23.8428 68.3018C23.8429 66.132 25.2147 64.6486 27.2305 64.6484ZM34.9111 64.6484C36.731 64.6485 37.7811 65.5578 37.7812 67.2236V70.3457C37.7812 70.7237 37.9212 70.8223 38.2432 70.8223H38.6074V71.8721H37.9775C37.0255 71.8721 36.7035 71.4656 36.6895 70.7656C36.2415 71.4096 35.5269 71.9561 34.2949 71.9561C32.7271 71.956 31.6632 71.172 31.6631 69.8701C31.6631 68.4421 32.6572 67.6436 34.5332 67.6436H36.6328V67.1543C36.6328 66.2304 35.9752 65.67 34.8555 65.6699C33.8475 65.6699 33.1752 66.146 33.0352 66.874H31.8867C32.0547 65.474 33.1891 64.6484 34.9111 64.6484ZM85.7734 64.6484C87.7894 64.6484 89.1061 65.9221 89.1621 68.0361C89.1621 68.1901 89.1478 68.3584 89.1338 68.5264H83.5898V68.624C83.6319 69.982 84.4858 70.9336 85.8438 70.9336C86.8517 70.9336 87.636 70.4015 87.874 69.4775H89.0361C88.7561 70.9055 87.5797 71.9561 85.9277 71.9561C83.7857 71.9561 82.3857 70.4858 82.3857 68.3018C82.3858 66.132 83.7577 64.6486 85.7734 64.6484ZM21.1729 69.6318V62.0723H22.3623V71.8721H21.2422L15.9785 64.3125V71.8721H14.7881V62.0723H15.9082L21.1729 69.6318ZM40.6377 65.8096C40.9737 65.2637 41.5201 64.7324 42.7939 64.7324H43.1162V65.8516H42.542C41.044 65.8516 40.6377 67.0984 40.6377 68.2324V71.8721H39.4902V64.7324H40.4834L40.6377 65.8096ZM45.2588 68.5264L48.8428 64.7324H50.2568L47.4707 67.6865L50.4531 71.8721H49.0664L46.7012 68.5127L45.2588 69.9961V71.8721H44.1113V62.0723H45.2588V68.5264ZM58.8594 62.0723C60.8192 62.0723 62.1073 63.2482 62.1074 65.082C62.1074 66.916 60.8193 68.1064 58.8594 68.1064H56.3115V71.8721H55.0938V62.0723H58.8594ZM64.3857 65.8096C64.7218 65.2637 65.2682 64.7324 66.542 64.7324H66.8643V65.8516H66.29C64.792 65.8516 64.3857 67.0984 64.3857 68.2324V71.8721H63.2383V64.7324H64.2314L64.3857 65.8096ZM69.0068 71.8721H67.8584V64.7324H69.0068V71.8721ZM78.5459 64.6484C80.0297 64.6486 81.248 65.5021 81.248 67.7559V71.8721H80.0996V67.8262C80.0996 66.4262 79.4833 65.6982 78.4053 65.6982C77.2155 65.6984 76.4874 66.594 76.4873 68.0498V71.8721H75.3398V67.8262C75.3398 66.4262 74.7092 65.6982 73.6172 65.6982C72.4416 65.6985 71.7277 66.6779 71.7275 68.1055V71.8721H70.5801V64.7324H71.5732L71.7275 65.7119C72.1055 65.1939 72.7075 64.6485 73.8135 64.6484C74.8074 64.6484 75.6614 65.096 76.0674 66.0059C76.5014 65.2359 77.2719 64.6484 78.5459 64.6484ZM34.4209 68.6104C33.3991 68.6104 32.8253 68.988 32.8252 69.7998C32.8252 70.4998 33.427 70.9755 34.3789 70.9756C35.8069 70.9756 36.6328 70.15 36.6328 68.96V68.6104H34.4209ZM97.5381 67.3779H99.876V68.3438H97.5381V70.8086H96.4883V68.3438H94.1641V67.3779H96.4883V64.9287H97.5381V67.3779ZM27.2451 65.6562C26.1951 65.6562 25.2292 66.4122 25.1172 67.5742H29.3867C29.2747 66.3423 28.4349 65.6564 27.2451 65.6562ZM85.7881 65.6562C84.7381 65.6562 83.7722 66.4122 83.6602 67.5742H87.9297C87.8177 66.3423 86.9779 65.6564 85.7881 65.6562ZM56.3115 66.9863H58.7471C60.0351 66.9863 60.8613 66.244 60.8613 65.082C60.8612 63.9203 60.0494 63.1926 58.7617 63.1924H56.3115V66.9863ZM68.4463 62.0439C68.8663 62.0439 69.1885 62.3521 69.1885 62.7861C69.1884 63.22 68.8662 63.5283 68.4463 63.5283C68.0265 63.5282 67.7052 63.2199 67.7051 62.7861C67.7051 62.3522 68.0264 62.0441 68.4463 62.0439Z" fill="url(#paint1_linear_538_350)"/>
<defs>
<linearGradient id="paint0_linear_538_350" x1="68.84" y1="-1.89181e-06" x2="47.3005" y2="33.3647" gradientUnits="userSpaceOnUse">
<stop stop-color="#CF69C1"/>
<stop offset="0.163487" stop-color="#0CF5FF"/>
<stop offset="0.53849" stop-color="#EB926C"/>
<stop offset="1" stop-color="#D25FEE"/>
</linearGradient>
<linearGradient id="paint1_linear_538_350" x1="92.1053" y1="51.1904" x2="85.3236" y2="89.3283" gradientUnits="userSpaceOnUse">
<stop stop-color="#CF69C1"/>
<stop offset="0.163487" stop-color="#0CF5FF"/>
<stop offset="0.53849" stop-color="#EB926C"/>
<stop offset="1" stop-color="#D25FEE"/>
</linearGradient>
</defs>
</svg>
