<svg width="332" height="212" viewBox="0 0 332 212" fill="none" xmlns="http://www.w3.org/2000/svg">
<path d="M38.5075 81.5072L37.853 81.5831L38.372 86.0494L39.0265 85.9735L39.0523 86.1946L37.6699 86.3549L34.3888 83.3039L34.7565 86.4697L35.411 86.3933L35.4368 86.6144L33.7843 86.8066L33.7585 86.5855L34.413 86.5097L33.8733 81.8633L34.3301 81.7273L37.9061 85.0342L37.5096 81.6231L37.0351 81.6782C36.9195 81.6806 36.8374 81.6153 36.7888 81.483L38.4822 81.2862L38.5075 81.5072ZM45.9262 81.7131L45.2686 81.7566L45.5635 86.2431L46.2211 86.2001L46.2357 86.4222L43.7704 86.584L43.7558 86.362L44.4128 86.319L44.1184 81.832L43.6829 81.8608C43.5673 81.8574 43.4881 81.788 43.4462 81.6534L45.9115 81.4916L45.9262 81.7131ZM54.2922 79.5569L53.836 79.8204L54.6336 84.8086L54.1056 85.1136L50.0632 81.9989L49.8492 82.1223C49.8208 82.1387 49.7932 82.1513 49.7668 82.1602C49.6995 82.1863 49.6328 82.1422 49.567 82.0282L51.4784 80.9251L51.5892 81.1173L51.0829 81.4096L52.4086 82.4703L53.8279 81.6509L53.5507 79.9853L53.1511 80.2159C53.1227 80.2323 53.0951 80.2449 53.0687 80.2539C53.0015 80.2799 52.9347 80.2358 52.8689 80.1218L54.1815 79.3642L54.2922 79.5569ZM52.6175 82.6347L54.1997 83.9088L53.8658 81.9144L52.6175 82.6347ZM16.2349 73.6288C19.9518 77.0207 24.3548 79.6725 29.2103 81.352L28.702 82.8208C23.6431 81.071 19.0574 78.3086 15.1873 74.777L16.2349 73.6288ZM60.366 76.7562L59.7251 77.2049L62.3042 80.8881L62.419 80.8082C62.5718 80.7012 62.6818 80.58 62.7488 80.4461C62.8431 80.246 62.8386 79.9673 62.7362 79.6105L62.5202 78.8568L62.723 78.7152L63.7068 80.1775L60.2122 82.6246L59.1743 81.1997L59.3766 81.0581L60.0109 81.5189C60.1021 81.5822 60.1836 81.6357 60.2547 81.6797C60.5911 81.873 60.9213 81.8563 61.245 81.6297L61.3599 81.5497L58.7808 77.8665L58.322 78.1876C58.2214 78.2447 58.118 78.2263 58.0124 78.133L60.2385 76.5741L60.366 76.7562ZM68.0962 71.3486L67.5914 71.772L70.4816 75.2165L70.9864 74.7932L71.1295 74.9636L69.0223 76.7314C68.7447 76.9643 68.4642 77.117 68.1812 77.1897C67.6833 77.3136 67.2686 77.1782 66.9369 76.783C66.8028 76.6232 66.7084 76.4549 66.6536 76.2787C66.454 75.665 66.7177 75.0527 67.4452 74.4421L67.9627 74.0082L66.7083 72.513L66.2475 72.8994C66.1521 72.9651 66.0478 72.9561 65.9344 72.8721L67.953 71.1782L68.0962 71.3486ZM67.7871 74.4781C67.3407 74.8598 67.3568 75.3444 67.8352 75.9317C68.3264 76.5086 68.7944 76.618 69.2388 76.2595L69.5984 75.9575L68.1215 74.1973L67.7871 74.4781ZM10.6164 66.0154C10.9754 66.6565 11.7756 67.3259 12.9486 67.6886C13.535 67.8699 14.0674 67.9275 14.5348 67.856L14.6562 68.1889C13.8487 68.7071 13.2017 69.6423 12.9254 70.6582C12.7872 71.1662 12.7553 71.6445 12.8318 72.1013L12.499 72.2227C12.0701 71.4635 11.1159 70.8147 10.0676 70.5232C9.54883 70.38 9.04871 70.3374 8.57038 70.4038L8.44899 70.071C9.27808 69.5628 10.0179 68.4142 10.2259 67.4322C10.3324 66.9358 10.3549 66.5056 10.2835 66.1368L10.6164 66.0154ZM10.4641 66.2865C10.6848 67.1394 10.765 68.1242 10.6578 68.6926C10.2365 69.187 9.36979 69.7898 8.68975 70.0912L8.73022 70.202C9.44775 70.0036 10.5444 69.9096 11.1424 70.0239C11.5928 70.3985 12.1557 71.1811 12.5349 71.9763L12.6457 71.9359C12.438 71.168 12.3497 70.186 12.4575 69.5454C12.8579 69.0676 13.7112 68.452 14.42 68.1312L14.3796 68.0199C13.6383 68.2269 12.6214 68.3192 11.9729 68.2142C11.4923 67.8058 10.9152 66.9837 10.5749 66.2461L10.4641 66.2865ZM75.0647 65.1672L74.6919 65.54L76.7531 70.1519L76.3221 70.5828L71.6115 68.6203L71.4365 68.7948C71.4133 68.8181 71.39 68.8375 71.3667 68.853C71.3085 68.8957 71.2328 68.8707 71.1396 68.7776L72.7005 67.2167L72.8573 67.374L72.4441 67.7873L73.9989 68.4686L75.1577 67.3098L74.4587 65.7726L74.133 66.0989C74.1097 66.1221 74.0864 66.1415 74.0632 66.157C74.005 66.1997 73.9292 66.1743 73.8361 66.0812L74.9074 65.0099L75.0647 65.1672ZM74.2432 68.5738L76.1011 69.3947L75.2625 67.5546L74.2432 68.5738ZM80.2517 58.8406C80.9147 58.802 81.518 59.0105 82.0605 59.4657C82.5189 59.8504 82.8132 60.3237 82.9441 60.885C83.1221 61.6722 82.9148 62.4192 82.322 63.1257C81.9515 63.5673 81.5136 63.8878 81.0089 64.0878C81.0797 64.14 81.1327 64.1883 81.1677 64.2319C81.2174 64.3094 81.1963 64.4028 81.1045 64.5122L79.8461 63.4884L80.0312 63.2674C80.3315 63.4047 80.5966 63.4947 80.8263 63.537C81.309 63.6194 81.7161 63.4629 82.0478 63.0676C82.6718 62.3155 82.4095 61.454 81.2608 60.4829C80.9076 60.1865 80.5899 59.9629 80.3079 59.8122C79.5893 59.4386 79.006 59.5189 78.5578 60.053C78.4449 60.1875 78.3571 60.3216 78.2948 60.4556C78.0724 60.9427 78.1882 61.5095 78.6423 62.1556L78.4677 62.364L77.2245 61.321C77.2633 61.2748 77.2996 61.2402 77.3327 61.2178C77.4131 61.1564 77.5316 61.195 77.6878 61.3332C77.817 60.7607 78.0633 60.258 78.4268 59.8249C78.9384 59.2151 79.5466 58.8867 80.2517 58.8406ZM4.0338 45.988C4.03382 47.6102 4.13716 49.2084 4.33729 50.7755C4.90698 55.236 6.26218 59.4508 8.25982 63.277L6.88251 63.9962C4.8014 60.0102 3.38954 55.6188 2.7961 50.9722C2.58765 49.34 2.47998 47.6762 2.47997 45.988H4.0338ZM82.2663 46.1296C84.0059 45.7175 85.7518 46.7943 86.1641 48.5337C86.5762 50.2733 85.499 52.0192 83.7595 52.4315C82.0201 52.8436 80.2741 51.7668 79.8617 50.0274C79.4495 48.2878 80.5268 46.542 82.2663 46.1296ZM85.762 48.6293C85.4022 47.1113 83.8795 46.172 82.3614 46.5318C80.8434 46.8916 79.9041 48.4143 80.2639 49.9323C80.6238 51.4501 82.1465 52.3891 83.6644 52.0294C85.1823 51.6696 86.1214 50.1472 85.762 48.6293ZM82.8632 48.6486C83.2078 48.5669 83.5611 48.7783 83.6447 49.1311C83.7261 49.4756 83.5071 49.8309 83.1626 49.9126C82.81 49.9961 82.463 49.7749 82.3812 49.4305C82.2975 49.0777 82.5104 48.7322 82.8632 48.6486ZM2.31862 35.096L2.27714 35.3312L1.64539 35.4035C1.63998 35.4026 1.63404 35.4046 1.62768 35.4091C1.09185 35.4763 0.780776 35.753 0.694978 36.2396L0.533626 37.1561L2.5528 37.5122L2.82746 35.9548L3.07075 35.9978L2.7961 37.5552L4.96196 37.9371L5.13039 36.9796L5.34941 37.0186L4.86586 39.7595L4.64735 39.7211L4.76166 39.0721L0.333326 38.2917L0.219014 38.9401L0 38.9017L0.71521 34.8466L2.31862 35.096ZM85.2835 37.101L83.717 37.3175L83.6892 37.0808L84.2324 36.8344C84.2795 36.8124 84.3266 36.7876 84.373 36.7601C84.7784 36.5413 84.9548 36.208 84.9026 35.7611L84.7944 34.8365L82.7575 35.0752L82.9416 36.6458L82.6963 36.6746L82.5122 35.1041L80.3286 35.36L80.4369 36.2841C80.449 36.3876 80.4715 36.4849 80.5041 36.575C80.6224 36.8761 80.8998 37.0732 81.3362 37.1657L81.9224 37.2876L81.9502 37.5249L80.3762 37.6761L79.8966 33.5867L80.1177 33.5609L80.1941 34.2149L84.6603 33.6914L84.5835 33.0374L84.8045 33.0116L85.2835 37.101ZM82.1404 25.1508L79.4055 27.9879L83.237 28.1609L83.8435 29.8245L83.6346 29.9003L83.409 29.2812L79.184 30.8204L79.3337 31.2306C79.3627 31.3426 79.3183 31.438 79.2007 31.5159L78.3691 29.2332L78.578 29.1568L78.8036 29.7759L82.4788 28.437L77.9109 28.217L77.8603 28.0774L80.4632 25.2621L77.5462 26.3253L77.6954 26.735C77.7244 26.847 77.6804 26.9424 77.5629 27.0203L76.9933 25.4573L77.2022 25.381L77.4278 26.0001L81.6523 24.4609L81.4267 23.8418L81.6361 23.7659L82.1404 25.1508ZM8.00337 27.6439L6.40502 31.349L6.20068 31.261L6.46167 30.656L2.33328 28.8751L2.07229 29.48L1.86794 29.392L2.86286 27.0855L3.06721 27.1735L2.78952 27.8164L6.91842 29.5974L7.25427 28.8184C7.31944 28.6673 7.35225 28.5225 7.35189 28.385C7.34083 28.1472 7.18903 27.9024 6.89717 27.651L6.2806 27.125L6.37518 26.906L8.00337 27.6439ZM9.62549 18.1849L9.48286 18.3761L8.91888 18.1823C8.86945 18.1661 8.81833 18.1517 8.76562 18.1398C8.32052 18.0207 7.96366 18.1419 7.69483 18.503L7.13895 19.2491L8.78383 20.4736L9.72817 19.2056L9.92594 19.3533L8.98211 20.6213L10.7459 21.9344L11.3012 21.1878C11.3635 21.1042 11.4139 21.0183 11.452 20.9304C11.5727 20.6303 11.5063 20.2967 11.2527 19.9299L10.9097 19.4382L11.0524 19.2471L12.3012 20.2177L9.84198 23.5206L9.66393 23.3876L10.0575 22.859L6.45055 20.1742L6.05703 20.7028L5.87899 20.5697L8.33771 17.2668L9.62549 18.1849ZM74.5123 17.0979C75.1406 16.6844 75.7978 16.5642 76.4835 16.7372C77.1464 16.9056 77.6784 17.2952 78.0798 17.9052C78.4208 18.4233 78.5784 18.9671 78.5522 19.5364C78.5109 20.3323 78.112 20.9797 77.3555 21.4777C76.7318 21.8881 76.0777 22.0128 75.3935 21.852C74.7337 21.6882 74.2031 21.3013 73.8017 20.6916C73.4486 20.1552 73.2943 19.5857 73.3389 18.9845C73.4014 18.2008 73.7925 17.5717 74.5123 17.0979ZM77.5082 17.6502C77.0168 17.323 76.2459 17.5053 75.1957 18.1965C74.6456 18.5586 74.2565 18.8963 74.0293 19.2101C73.7116 19.6559 73.7068 20.1132 74.0146 20.5809C74.1534 20.7916 74.3155 20.9382 74.5007 21.0199C74.9761 21.2328 75.7025 21.0178 76.6792 20.375C77.0918 20.1034 77.4154 19.8408 77.6499 19.588C78.1356 19.058 78.2078 18.5336 77.8668 18.0154C77.7643 17.8596 77.6447 17.7378 77.5082 17.6502ZM16.0113 11.4536L15.8287 11.6074L15.3244 11.2882C15.2802 11.261 15.2337 11.2355 15.1853 11.2118C14.7797 10.9932 14.4043 11.0287 14.0594 11.318L13.3462 11.9159L14.6643 13.4869L15.8757 12.4708L16.0346 12.6599L14.8232 13.6761L16.2369 15.3604L16.9496 14.7626C17.0294 14.6956 17.0981 14.6233 17.1554 14.5466C17.3422 14.2824 17.3546 13.9423 17.1924 13.5269L16.9718 12.97L17.1549 12.8162L18.1458 14.0489L14.9916 16.6953L14.849 16.5253L15.3537 16.1014L12.4631 12.6574L11.9588 13.0808L11.8156 12.9103L14.9698 10.2634L16.0113 11.4536ZM69.4067 9.91544C70.2028 9.78335 70.9365 10.0339 71.6075 10.6666C72.0268 11.062 72.3217 11.5174 72.4921 12.0327C72.5484 11.9651 72.5998 11.9149 72.6454 11.8825C72.7256 11.8375 72.8178 11.8641 72.9216 11.9619L71.8265 13.1592L71.6166 12.9614C71.7711 12.6696 71.8762 12.4098 71.9317 12.183C72.0419 11.706 71.909 11.2906 71.5336 10.9367C70.8188 10.2703 69.9435 10.4822 68.9075 11.573C68.5912 11.9085 68.3499 12.2131 68.1832 12.4859C67.7689 13.1816 67.8151 13.7684 68.3223 14.2467C68.45 14.3671 68.5791 14.4625 68.7092 14.5324C69.1826 14.7825 69.7552 14.6999 70.4264 14.2841L70.6242 14.4702L69.5114 15.6508C69.4676 15.6094 69.4353 15.5713 69.4148 15.537C69.358 15.4532 69.403 15.3374 69.5499 15.1895C68.986 15.0274 68.498 14.7523 68.0866 14.3645C67.5075 13.8185 67.2154 13.1919 67.21 12.4854C67.2099 11.8214 67.4531 11.2314 67.9389 10.7161C68.3494 10.2808 68.8388 10.0137 69.4067 9.91544ZM23.2469 5.99443L23.0572 6.15325L22.3855 5.74962C22.289 5.69444 22.2031 5.64771 22.1285 5.61001C21.7765 5.44681 21.449 5.49202 21.1462 5.74607L21.039 5.83611L23.9297 9.28065L24.3586 8.92052C24.4539 8.85499 24.5583 8.86443 24.6717 8.94833L22.5898 10.6949L22.4472 10.5249L23.046 10.0217L20.1559 6.57711L20.0486 6.66715C19.9058 6.78704 19.8068 6.91687 19.7517 7.05611C19.6752 7.26372 19.7034 7.54148 19.8367 7.88816L20.1174 8.62007L19.9283 8.77889L18.8205 7.40765L22.0886 4.66517L23.2469 5.99443ZM63.4504 5.1123L63.3396 5.30501L62.7331 4.95499L60.4863 8.8497L61.2208 9.27357C61.3634 9.35583 61.5033 9.40522 61.6401 9.42076C61.8776 9.43739 62.1384 9.31496 62.4221 9.05405L63.0159 8.50272L63.2227 8.62209L62.3012 10.1537L58.8055 8.13702L58.9168 7.94431L59.4874 8.27359L61.7347 4.37888L61.1636 4.0496L61.2749 3.85739L63.4504 5.1123ZM31.1779 0.682449C32.9175 0.270159 34.6633 1.34696 35.0756 3.08655C35.4877 4.82601 34.411 6.57203 32.6715 6.98429C30.9321 7.3965 29.1863 6.31949 28.7738 4.58019C28.3615 2.84065 29.4384 1.0948 31.1779 0.682449ZM55.9907 2.0805L55.5694 3.605L55.3403 3.53671L55.3296 2.94037C55.328 2.88839 55.3239 2.83509 55.317 2.78154C55.2766 2.32259 55.0406 2.02839 54.6094 1.89942L53.7176 1.63286L53.1304 3.59792L54.6453 4.05061L54.5745 4.28733L53.0596 3.83413L52.4299 5.94081L53.3211 6.20737C53.4209 6.23722 53.5188 6.25527 53.6144 6.26099C53.9378 6.27173 54.2286 6.09487 54.4865 5.7309L54.8309 5.24077L55.0595 5.30906L54.575 6.81484L50.6302 5.6348L50.6939 5.42185L51.3252 5.61052L52.613 1.30257L51.9822 1.1139L52.0459 0.900957L55.9907 2.0805ZM34.6735 3.18164C34.3137 1.66364 32.791 0.724282 31.273 1.08406C29.7551 1.44393 28.8162 2.96665 29.1759 4.48459C29.5358 6.00247 31.0585 6.9419 32.5765 6.58217C34.0943 6.22232 35.0331 4.69953 34.6735 3.18164ZM44.3648 0.267688L44.3521 0.489231L43.6946 0.451295L44.777 4.1189L45.7097 1.97023L45.1791 0.314728L47.0865 0.424993L47.0734 0.647042L46.4163 0.600508L47.4861 4.20134L48.8493 0.749721L48.1917 0.711785L48.2043 0.489736L49.5609 0.568642L49.5483 0.790185L49.1371 0.766412L47.2939 5.38645L47.1295 5.37684C47.0364 5.37144 46.9603 5.35045 46.9019 5.31412C46.8065 5.2534 46.7029 5.05212 46.5908 4.71069L45.8367 2.34908L44.5807 5.22965L44.4164 5.22004C44.3234 5.21465 44.2476 5.19357 44.1893 5.15732C44.0938 5.09681 43.9898 4.8952 43.8777 4.55338L42.5353 0.384023L42.1241 0.36025L42.1372 0.137695L44.3648 0.267688ZM31.7747 3.20136C32.1194 3.11968 32.4731 3.33056 32.5567 3.6834C32.6382 4.02787 32.4191 4.3831 32.0747 4.46487C31.722 4.54844 31.3745 4.32731 31.2927 3.98283C31.2092 3.63013 31.4221 3.28509 31.7747 3.20136Z" fill="#0033FF"/>
<path d="M301.622 211.206H37.0259V35.7646H301.622V211.206ZM38.0269 210.206H96.2505V96.4756H38.0269V210.206ZM97.2505 210.206H300.622V151.495H97.2505V210.206ZM163.948 179.14C164.323 179.14 164.656 179.207 164.948 179.342C165.239 179.474 165.471 179.656 165.641 179.887C165.813 180.118 165.904 180.38 165.914 180.674H165.232C165.198 180.386 165.059 180.163 164.817 180.004C164.575 179.845 164.277 179.765 163.925 179.765C163.668 179.765 163.442 179.806 163.249 179.89C163.057 179.973 162.908 180.088 162.8 180.233C162.694 180.379 162.641 180.545 162.641 180.73C162.641 180.886 162.678 181.02 162.751 181.132C162.827 181.242 162.924 181.333 163.042 181.407C163.159 181.479 163.282 181.539 163.411 181.586C163.539 181.631 163.658 181.668 163.766 181.696L164.357 181.855C164.508 181.895 164.677 181.95 164.863 182.021C165.05 182.091 165.23 182.186 165.4 182.308C165.572 182.427 165.714 182.58 165.826 182.768C165.937 182.955 165.994 183.185 165.994 183.458C165.994 183.772 165.91 184.057 165.746 184.311C165.583 184.564 165.344 184.765 165.03 184.915C164.717 185.065 164.338 185.14 163.891 185.14C163.474 185.14 163.113 185.073 162.808 184.938C162.505 184.804 162.266 184.616 162.092 184.376C161.92 184.136 161.823 183.856 161.8 183.538H162.527C162.546 183.757 162.62 183.939 162.749 184.083C162.879 184.225 163.045 184.331 163.244 184.401C163.444 184.469 163.66 184.504 163.891 184.504C164.16 184.504 164.402 184.46 164.616 184.373C164.829 184.284 164.999 184.161 165.124 184.004C165.249 183.845 165.311 183.658 165.311 183.446C165.311 183.254 165.257 183.097 165.15 182.976C165.042 182.854 164.899 182.755 164.723 182.68C164.547 182.604 164.356 182.537 164.152 182.48L163.436 182.276C162.982 182.146 162.622 181.959 162.357 181.717C162.092 181.474 161.959 181.157 161.959 180.765C161.96 180.439 162.047 180.155 162.223 179.913C162.401 179.669 162.64 179.479 162.939 179.345C163.24 179.208 163.577 179.14 163.948 179.14ZM173.849 179.14C174.224 179.14 174.557 179.207 174.849 179.342C175.141 179.474 175.372 179.656 175.542 179.887C175.715 180.118 175.805 180.38 175.815 180.674H175.133C175.099 180.386 174.961 180.163 174.718 180.004C174.476 179.845 174.179 179.765 173.827 179.765C173.569 179.765 173.344 179.806 173.151 179.89C172.96 179.973 172.81 180.088 172.702 180.233C172.596 180.379 172.543 180.545 172.542 180.73C172.542 180.886 172.58 181.02 172.654 181.132C172.73 181.241 172.826 181.333 172.943 181.407C173.06 181.479 173.183 181.539 173.312 181.586C173.441 181.631 173.56 181.668 173.667 181.696L174.258 181.855C174.41 181.895 174.579 181.95 174.764 182.021C174.952 182.091 175.131 182.186 175.301 182.308C175.473 182.427 175.615 182.58 175.727 182.768C175.839 182.955 175.895 183.185 175.895 183.458C175.895 183.772 175.813 184.057 175.648 184.311C175.485 184.564 175.246 184.765 174.932 184.915C174.62 185.065 174.239 185.14 173.792 185.14C173.376 185.14 173.015 185.073 172.71 184.938C172.408 184.804 172.169 184.616 171.995 184.376C171.822 184.136 171.724 183.856 171.702 183.538H172.429C172.448 183.758 172.522 183.939 172.651 184.083C172.782 184.225 172.946 184.331 173.145 184.401C173.346 184.469 173.562 184.504 173.792 184.504C174.061 184.504 174.303 184.46 174.517 184.373C174.731 184.284 174.901 184.161 175.026 184.004C175.151 183.845 175.213 183.658 175.213 183.446C175.213 183.253 175.159 183.097 175.051 182.976C174.943 182.854 174.801 182.755 174.625 182.68C174.449 182.604 174.259 182.537 174.054 182.48L173.338 182.276C172.884 182.146 172.523 181.959 172.258 181.717C171.993 181.474 171.861 181.157 171.861 180.765C171.861 180.439 171.949 180.155 172.125 179.913C172.303 179.669 172.542 179.479 172.841 179.345C173.142 179.208 173.478 179.14 173.849 179.14ZM191.111 179.14C191.607 179.14 192.049 179.261 192.435 179.504C192.821 179.746 193.126 180.091 193.347 180.538C193.569 180.985 193.679 181.515 193.679 182.129C193.679 182.742 193.569 183.273 193.347 183.72C193.126 184.167 192.821 184.512 192.435 184.754C192.049 184.996 191.607 185.117 191.111 185.117C190.615 185.117 190.174 184.996 189.788 184.754C189.401 184.512 189.097 184.167 188.875 183.72C188.654 183.273 188.544 182.742 188.543 182.129C188.543 181.515 188.654 180.985 188.875 180.538C189.097 180.091 189.401 179.746 189.788 179.504C190.174 179.262 190.615 179.14 191.111 179.14ZM219.856 179.14C220.163 179.14 220.448 179.187 220.713 179.279C220.98 179.37 221.218 179.5 221.426 179.668C221.636 179.835 221.812 180.035 221.953 180.268C222.093 180.499 222.189 180.756 222.242 181.038H221.515C221.453 180.847 221.37 180.675 221.268 180.523C221.168 180.37 221.047 180.24 220.907 180.132C220.768 180.024 220.611 179.941 220.435 179.884C220.259 179.827 220.066 179.799 219.856 179.799C219.511 179.799 219.198 179.888 218.916 180.066C218.633 180.244 218.408 180.506 218.242 180.853C218.075 181.199 217.992 181.625 217.992 182.129C217.992 182.633 218.076 183.058 218.245 183.404C218.413 183.751 218.641 184.013 218.929 184.191C219.217 184.369 219.541 184.458 219.901 184.458C220.234 184.458 220.528 184.387 220.782 184.245C221.037 184.101 221.236 183.898 221.378 183.637C221.516 183.385 221.586 183.091 221.592 182.754H220.06V182.129H222.276V182.754C222.276 183.233 222.174 183.65 221.969 184.004C221.767 184.358 221.486 184.632 221.128 184.827C220.772 185.02 220.363 185.117 219.901 185.117C219.386 185.117 218.933 184.996 218.543 184.754C218.155 184.512 217.852 184.167 217.634 183.72C217.418 183.273 217.31 182.742 217.31 182.129C217.31 181.669 217.372 181.254 217.495 180.887C217.62 180.518 217.796 180.204 218.023 179.944C218.25 179.685 218.52 179.486 218.831 179.348C219.141 179.209 219.483 179.14 219.856 179.14ZM115.805 179.22C116.262 179.22 116.635 179.302 116.924 179.467C117.216 179.63 117.432 179.851 117.572 180.129C117.712 180.407 117.783 180.718 117.783 181.061C117.783 181.403 117.712 181.715 117.572 181.995C117.434 182.275 117.22 182.498 116.93 182.665C116.64 182.83 116.269 182.913 115.816 182.913H114.543V185.038H113.839V179.22H115.805ZM127.229 179.845H124.421V181.811H127.046V182.436H124.421V184.413H127.274V185.038H123.717V179.22H127.229V179.845ZM135.264 179.22C135.718 179.22 136.092 179.297 136.383 179.452C136.675 179.606 136.892 179.817 137.032 180.086C137.172 180.355 137.242 180.661 137.242 181.004C137.242 181.346 137.172 181.65 137.032 181.915C136.892 182.18 136.676 182.389 136.386 182.54C136.314 182.577 136.237 182.61 136.155 182.638L137.469 185.038H136.651L135.421 182.758C135.374 182.76 135.325 182.765 135.276 182.765H134.003V185.038H133.298V179.22H135.264ZM146.034 184.049H146.102L148.08 179.22H148.92V185.038H148.261V180.617H148.205L146.386 185.038H145.75L143.931 180.617H143.875V185.038H143.215V179.22H144.056L146.034 184.049ZM155.837 185.038H155.133V179.22H155.837V185.038ZM182.558 185.038H181.853V179.22H182.558V185.038ZM203.528 183.799H203.584V179.22H204.278V185.038H203.596L200.425 180.47H200.369V185.038H199.665V179.22H200.346L203.528 183.799ZM230.249 179.22C230.703 179.22 231.076 179.297 231.368 179.452C231.659 179.606 231.876 179.817 232.016 180.086C232.156 180.355 232.226 180.661 232.226 181.004C232.226 181.346 232.156 181.65 232.016 181.915C231.876 182.18 231.66 182.389 231.371 182.54C231.298 182.577 231.221 182.61 231.139 182.638L232.454 185.038H231.635L230.406 182.758C230.358 182.76 230.31 182.765 230.26 182.765H228.988V185.038H228.283V179.22H230.249ZM242.7 185.038H241.961L241.376 183.39H239.024L238.439 185.038H237.7L239.836 179.22H240.564L242.7 185.038ZM252.27 183.799H252.327V179.22H253.02V185.038H252.338L249.167 180.47H249.111V185.038H248.407V179.22H249.088L252.27 183.799ZM263.275 179.845H261.446V185.038H260.741V179.845H258.912V179.22H263.275V179.845ZM272.674 179.845H269.867V181.811H272.492V182.436H269.867V184.413H272.719V185.038H269.163V179.22H272.674V179.845ZM280.619 179.22C281.183 179.22 281.666 179.336 282.068 179.569C282.469 179.8 282.777 180.133 282.991 180.566C283.205 180.998 283.312 181.515 283.312 182.117C283.312 182.723 283.204 183.245 282.988 183.683C282.772 184.118 282.458 184.454 282.045 184.688C281.633 184.921 281.13 185.038 280.54 185.038H278.744V179.22H280.619ZM191.111 179.799C190.759 179.799 190.44 179.888 190.154 180.066C189.87 180.244 189.644 180.506 189.475 180.853C189.308 181.199 189.225 181.625 189.225 182.129C189.225 182.633 189.308 183.058 189.475 183.404C189.644 183.751 189.87 184.013 190.154 184.191C190.44 184.369 190.759 184.458 191.111 184.458C191.463 184.458 191.782 184.369 192.066 184.191C192.352 184.013 192.578 183.751 192.745 183.404C192.913 183.058 192.998 182.633 192.998 182.129C192.998 181.625 192.913 181.199 192.745 180.853C192.578 180.506 192.352 180.244 192.066 180.066C191.782 179.888 191.463 179.799 191.111 179.799ZM279.449 184.413H280.494C280.975 184.413 281.374 184.319 281.69 184.134C282.006 183.948 282.242 183.684 282.397 183.342C282.552 182.999 282.63 182.591 282.63 182.117C282.63 181.648 282.553 181.243 282.4 180.904C282.246 180.563 282.017 180.302 281.712 180.12C281.408 179.936 281.028 179.845 280.574 179.845H279.449V184.413ZM239.246 182.765H241.155L240.223 180.14H240.177L239.246 182.765ZM114.543 182.288H115.793C116.106 182.288 116.357 182.234 116.546 182.126C116.736 182.018 116.873 181.872 116.958 181.688C117.046 181.503 117.089 181.293 117.089 181.061C117.089 180.828 117.046 180.619 116.958 180.436C116.873 180.252 116.735 180.108 116.543 180.004C116.352 179.898 116.099 179.845 115.783 179.845H114.543V182.288ZM134.003 182.129H135.253C135.564 182.129 135.814 182.083 136.003 181.992C136.195 181.901 136.332 181.772 136.417 181.605C136.505 181.437 136.548 181.237 136.548 181.004C136.548 180.771 136.505 180.567 136.417 180.393C136.33 180.219 136.192 180.084 136 179.989C135.809 179.893 135.556 179.845 135.242 179.845H134.003V182.129ZM228.988 182.129H230.238C230.548 182.129 230.798 182.083 230.988 181.992C231.179 181.901 231.317 181.772 231.402 181.605C231.489 181.437 231.533 181.237 231.533 181.004C231.533 180.771 231.489 180.567 231.402 180.393C231.315 180.219 231.176 180.084 230.985 179.989C230.794 179.893 230.54 179.845 230.226 179.845H228.988V182.129ZM65.8228 176.955C66.1608 176.955 66.4588 177.028 66.7173 177.174C66.9758 177.32 67.1776 177.531 67.3218 177.808C67.4659 178.083 67.5376 178.416 67.5376 178.807V179.712H69.189V180.788H64.0972V178.779C64.0972 178.393 64.1714 178.064 64.3188 177.792C64.4647 177.52 64.6682 177.313 64.9282 177.171C65.1867 177.027 65.4848 176.955 65.8228 176.955ZM65.8228 178.063C65.6538 178.063 65.5063 178.097 65.3804 178.165C65.2528 178.231 65.1541 178.333 65.0845 178.469C65.0133 178.605 64.9781 178.777 64.978 178.985V179.712H66.6753V178.98C66.6753 178.774 66.64 178.603 66.5688 178.469C66.496 178.333 66.3956 178.231 66.2681 178.165C66.1388 178.097 65.9901 178.063 65.8228 178.063ZM69.189 169.229L67.3843 170.192V170.979H69.189V172.056H64.0972V170.047C64.0972 169.662 64.1667 169.334 64.3042 169.062C64.4401 168.789 64.6331 168.581 64.8833 168.438C65.1317 168.294 65.4241 168.223 65.7603 168.223C66.0983 168.223 66.3897 168.296 66.6333 168.441C66.8751 168.587 67.0607 168.799 67.1899 169.075C67.197 169.09 67.2028 169.106 67.2095 169.121L69.189 168.041V169.229ZM65.7603 169.331C65.5916 169.331 65.4493 169.365 65.3335 169.433C65.2175 169.499 65.1295 169.602 65.0698 169.739C65.0086 169.875 64.9781 170.046 64.978 170.253V170.979H66.519V170.248C66.519 170.043 66.4904 169.872 66.4341 169.736C66.3778 169.601 66.2937 169.499 66.1812 169.433C66.0685 169.365 65.9276 169.331 65.7603 169.331ZM69.188 163.262H64.0972V159.831H64.9849V162.186H66.1978V160.008H67.0854V162.186H68.3013V159.821H69.188V163.262ZM69.188 150.301H65.8745V150.344L69.1636 151.661V152.372L65.8628 153.689V153.731H69.188V154.775H64.0972V153.448L67.5181 152.046V151.986L64.0972 150.585V149.257H69.188V150.301ZM97.2505 150.495H300.622V96.4756H97.2505V150.495ZM69.188 144.171H64.0972V143.094H69.188V144.171ZM67.4038 133.788C67.775 133.788 68.1 133.876 68.3784 134.054C68.6567 134.229 68.8741 134.476 69.0298 134.792C69.1838 135.108 69.2603 135.478 69.2603 135.898C69.2602 136.321 69.1838 136.69 69.0298 137.007C68.874 137.323 68.6567 137.569 68.3784 137.745C68.1 137.921 67.775 138.009 67.4038 138.009H64.0972V136.933H67.312C67.5057 136.933 67.6779 136.89 67.8286 136.806C67.9794 136.719 68.0979 136.598 68.1841 136.442C68.2702 136.287 68.3129 136.105 68.313 135.898C68.313 135.69 68.2703 135.508 68.1841 135.354C68.0979 135.198 67.9794 135.078 67.8286 134.993C67.6779 134.907 67.5057 134.864 67.312 134.864H64.0972V133.788H67.4038ZM161.364 112.564C161.484 112.355 161.604 112.086 161.933 112.235C162.173 112.355 162.173 112.655 161.994 112.985C161.574 113.735 161.123 114.486 160.643 115.206C158.933 117.876 157.193 120.486 155.483 123.126C155.363 123.246 155.303 123.457 155.153 123.696C156.803 123.726 158.363 123.756 159.893 124.236V124.355C159.113 124.385 158.393 124.535 157.614 124.565C156.744 124.625 155.873 124.626 154.973 124.626C154.613 124.626 154.403 124.776 154.193 125.076C152.183 128.076 150.113 131.106 148.074 134.105C147.654 134.705 147.173 135.306 146.753 135.906C146.484 136.296 146.183 136.416 145.914 136.236C145.644 136.086 145.613 135.786 145.853 135.336C146.063 134.796 146.423 134.406 146.813 133.986C147.443 133.356 147.953 132.606 148.463 131.886C150.023 129.606 151.523 127.326 153.053 125.076C153.113 124.956 153.174 124.835 153.293 124.686C153.084 124.656 152.963 124.626 152.843 124.626C151.703 124.626 150.563 124.656 149.393 124.626C149.033 124.626 148.793 124.776 148.643 125.076C147.833 126.276 147.023 127.536 146.183 128.706C145.703 129.456 145.103 130.056 144.563 130.716C144.323 131.076 144.053 131.376 143.813 131.676C143.574 131.496 143.723 131.255 143.813 131.105C144.293 130.296 144.713 129.456 145.223 128.676C146.033 127.386 146.843 126.186 147.683 124.926C147.713 124.866 147.713 124.805 147.803 124.686C147.623 124.686 147.533 124.656 147.383 124.656C145.463 124.656 143.543 124.656 141.624 124.686C138.834 124.776 136.043 124.866 133.223 124.956C132.263 124.956 131.363 125.046 130.403 125.076C130.193 125.076 129.834 125.105 129.833 124.776C129.804 124.446 130.104 124.356 130.374 124.326C131.123 124.266 131.873 124.116 132.563 124.116C135.533 123.996 138.473 123.905 141.383 123.815C143.573 123.755 145.793 123.726 147.983 123.726C148.373 123.726 148.613 123.576 148.793 123.246C150.383 120.936 152.003 118.626 153.593 116.286C154.133 115.566 154.613 114.845 155.213 114.095C155.333 113.885 155.514 113.645 155.933 113.765C155.843 114.035 155.783 114.275 155.633 114.455C154.973 115.505 154.283 116.556 153.593 117.605C152.333 119.525 151.013 121.446 149.753 123.366C149.723 123.456 149.663 123.517 149.603 123.696H153.563C153.863 123.696 154.013 123.575 154.193 123.306C155.753 121.026 157.283 118.716 158.813 116.376C159.653 115.146 160.524 113.854 161.364 112.564ZM233.822 111.575C234.091 111.485 234.301 111.486 234.481 111.665C234.661 111.845 234.631 112.085 234.481 112.295C234.091 112.775 233.761 113.255 233.311 113.675C231.661 115.265 229.801 116.646 227.881 117.876C226.682 118.656 225.691 119.646 224.792 120.756C222.602 123.306 220.591 126.066 218.731 128.886C218.041 129.966 217.472 131.136 216.872 132.246C216.752 132.516 216.661 132.846 216.542 133.206C216.512 133.596 216.692 133.896 217.082 133.986C217.441 134.076 217.742 134.135 218.072 134.105C219.511 134.015 220.951 133.956 222.391 133.746C225.571 133.296 228.721 132.726 231.901 132.246C234.061 131.886 236.251 131.736 238.441 131.586C238.861 131.586 239.281 131.616 239.731 131.706C239.971 131.736 240.151 131.856 240.061 132.276C238.651 132.426 237.241 132.516 235.801 132.666C234.511 132.756 233.161 132.936 231.901 133.086C229.951 133.356 228.031 133.716 226.111 134.016C224.221 134.316 222.301 134.586 220.322 134.796C219.857 134.856 219.376 134.878 218.896 134.886H217.292C216.062 134.736 215.492 133.956 215.822 132.786C216.062 132.036 216.362 131.346 216.751 130.656C218.041 128.316 219.572 126.156 221.162 123.996C221.852 123.096 222.541 122.286 223.141 121.386C223.291 121.266 223.351 121.116 223.381 120.906C223.021 121.146 222.601 121.386 222.211 121.626C220.442 122.736 218.671 123.816 216.841 124.926C216.211 125.286 215.491 125.556 214.771 125.855C214.591 125.945 214.351 126.005 214.082 125.766C214.201 125.676 214.292 125.556 214.412 125.496C217.501 123.966 220.382 121.986 223.322 120.156C224.972 119.166 226.322 117.846 227.671 116.466C229.111 114.966 230.641 113.525 232.381 112.325C232.711 112.085 233.071 111.905 233.431 111.695C233.581 111.635 233.732 111.605 233.822 111.575ZM252.089 113.285C252.209 113.045 252.51 112.776 252.75 112.985C252.839 113.045 252.87 113.315 252.87 113.465C252.84 113.615 252.66 113.795 252.6 113.915C251.7 115.145 252.119 114.726 250.95 116.436C252.66 116.736 256.53 116.676 259.56 116.346C260.52 116.256 261.39 116.166 261.959 116.196C262.949 116.256 262.799 116.706 261.959 116.886C259.769 117.276 252.33 117.216 250.44 117.156C249.06 118.896 247.409 121.506 246.54 123.156C245.82 124.566 244.831 126.935 246.78 126.126C247.65 125.796 249.119 124.806 250.049 124.026C250.208 123.921 250.322 123.793 250.469 123.702C250.559 123.54 250.749 123.415 251.063 123.396C251.753 123.306 251.843 123.605 252.203 122.946C253.373 121.026 254.603 119.586 256.103 118.086C256.313 117.876 256.523 117.666 256.763 117.516C256.913 117.396 257.033 117.336 257.183 117.246C257.663 117.096 258.143 117.546 258.053 118.176C257.993 118.566 257.903 118.956 257.723 119.256C256.853 120.726 255.833 122.016 254.573 122.946C254.333 123.156 254.063 123.305 253.673 122.826C254.963 121.626 256.223 120.335 257.093 118.565C256.313 118.866 253.673 122.046 252.923 123.516C254.873 123.846 257.573 123.636 259.223 123.366C259.303 123.356 259.38 123.357 259.448 123.38C259.833 122.694 260.149 121.857 260.607 121.236C260.997 120.726 261.957 121.266 261.327 122.105C260.937 122.735 260.517 123.336 260.127 123.996C258.928 126.455 262.256 124.717 262.887 124.026C263.697 123.156 264.237 124.146 263.547 124.506C262.677 124.986 261.777 125.466 260.787 125.706C260.487 125.736 260.126 125.766 259.827 125.706C259.287 125.616 258.987 125.105 259.077 124.596C259.077 124.468 259.081 124.33 259.099 124.194C257.915 124.12 256.861 124.157 255.863 124.386C255.983 125.645 255.413 126.756 254.874 127.565C253.614 129.395 252.053 130.926 250.253 132.036C249.953 132.186 249.593 132.306 249.203 132.426C248.483 132.545 247.974 131.915 248.093 131.046C248.183 130.716 248.273 130.386 248.423 130.086C249.353 128.166 250.343 126.126 251.063 124.596C250.93 124.59 250.812 124.55 250.715 124.488C249.976 125.072 248.22 126.278 246.839 126.756C244.537 127.549 244.81 125.592 245.293 124.181C245.083 124.218 244.877 124.248 244.65 124.266C243.9 124.416 243.149 124.506 242.429 124.656C242.219 124.686 242.039 124.776 241.889 124.956C241.05 125.736 240.629 126.276 239.879 126.516C238.8 126.845 237.69 126.126 239.16 123.786C239.67 122.976 240.42 122.346 241.2 121.716C241.53 121.476 241.86 121.266 242.339 121.236C242.999 121.176 243.39 121.476 243.36 122.136C243.36 122.436 243.18 122.796 243.12 123.156C243.03 123.336 242.94 123.516 242.82 123.786C243.3 123.696 243.75 123.666 244.169 123.576C244.499 123.516 245.04 123.455 245.4 123.396C245.485 123.396 245.545 123.397 245.599 123.401C246.542 121.216 248.299 118.925 249.39 117.186C248.07 117.216 246.6 117.246 245.49 117.246C244.562 117.366 244.47 116.947 244.53 116.826C244.65 116.646 244.86 116.406 245.7 116.466C247.02 116.586 248.49 116.586 249.87 116.406C249.929 116.376 249.99 116.316 250.02 116.256C251.13 114.696 250.95 114.785 252.089 113.285ZM255.083 124.416C254.063 124.626 252.383 124.206 251.963 124.746C251.633 125.167 250.973 126.695 250.733 127.146C250.163 128.375 249.623 129.636 249.023 130.866C248.963 130.986 248.963 131.196 248.933 131.315C248.933 131.405 248.993 131.436 249.023 131.466C249.293 131.346 249.623 131.286 249.893 131.166C251.813 129.966 253.373 128.255 254.693 126.186C254.843 125.885 255.083 125.016 255.083 124.416ZM69.188 124.228H65.8745V124.27L69.1636 125.587V126.298L65.8628 127.616V127.658H69.188V128.702H64.0972V127.375L67.5181 125.973V125.913L64.0972 124.511V123.184H69.188V124.228ZM190.076 119.916C190.256 119.886 190.406 119.826 190.496 119.886C190.675 119.946 190.885 120.036 190.975 120.186C191.125 120.336 191.035 120.606 190.885 120.756C190.735 120.876 190.615 121.026 190.435 121.116C189.055 122.046 187.646 123.006 186.236 123.906C185.456 124.446 184.615 124.986 183.805 125.496C183.746 125.526 183.715 125.586 183.685 125.766C184.255 125.706 184.826 125.676 185.366 125.556C186.836 125.406 194.575 124.866 196.045 124.686C196.645 124.656 197.245 124.596 197.755 125.166C197.515 125.436 197.215 125.466 196.916 125.526C195.205 125.736 187.255 126.246 185.515 126.426C184.435 126.576 183.445 126.756 182.366 126.876C181.856 126.966 181.585 126.905 181.465 126.636C181.346 126.366 181.465 126.036 181.855 125.766C182.515 125.286 183.205 124.836 183.925 124.386C185.485 123.366 187.045 122.316 188.635 121.326C188.725 121.266 188.846 121.116 188.996 121.026C188.966 120.996 188.965 120.906 188.935 120.876C187.945 121.026 186.955 121.116 185.965 121.296C184.406 121.596 183.295 122.556 182.425 123.876C182.404 123.915 182.38 123.95 182.358 123.983C182.324 124.138 182.189 124.305 181.894 124.416C181.144 124.836 180.363 125.196 179.494 125.286C178.414 125.406 177.874 124.895 177.844 123.846C177.844 123.606 177.874 123.425 177.875 123.186C177.875 122.346 177.994 121.896 177.184 122.436C176.374 122.886 175.384 123.606 174.574 124.056C174.304 124.235 173.974 124.356 173.674 124.416C173.045 124.596 172.654 124.355 172.444 123.726C172.174 123.066 172.384 122.706 171.665 123.216C170.885 123.816 170.044 124.836 169.264 125.466C169.084 125.616 168.934 125.766 168.724 125.886C168.365 126.005 168.094 125.796 168.154 125.406C168.184 125.226 168.244 125.106 168.364 124.926C168.382 124.889 168.401 124.852 168.419 124.815C167.15 125.498 165.314 125.966 165.314 124.386C165.314 124.056 165.374 123.726 165.434 123.336C164.414 123.966 163.454 124.626 162.404 125.166C162.164 125.346 161.834 125.376 161.564 125.406C161.174 125.466 160.814 125.345 160.634 125.016C160.424 124.656 160.514 124.326 160.724 124.026C160.904 123.786 161.055 123.605 161.294 123.396C162.344 122.496 163.574 122.016 165.014 122.136C165.224 122.166 165.464 122.105 165.644 121.896C165.914 121.626 166.184 121.325 166.454 121.056C166.543 120.936 166.664 120.786 166.784 120.756C166.904 120.726 167.114 120.726 167.234 120.786C167.324 120.906 167.384 121.057 167.354 121.236C167.324 121.446 167.234 121.626 167.114 121.836C166.873 122.347 165.315 125.225 167.144 124.686C167.624 124.566 168.194 124.206 168.764 123.936C168.809 123.918 168.856 123.891 168.905 123.864C169.182 123.327 169.466 122.787 169.774 122.226C169.804 122.106 169.865 121.926 169.955 121.866C170.075 121.776 170.255 121.686 170.375 121.746C170.464 121.777 170.584 121.956 170.584 122.105C170.524 122.315 170.434 122.496 170.375 122.676C170.224 122.976 169.714 123.876 169.684 124.236C170.014 124.026 170.704 123.156 171.064 122.916C171.304 122.736 171.544 122.616 171.784 122.496C172.444 122.226 172.925 122.466 173.165 123.156C173.194 123.276 173.224 123.426 173.254 123.546C173.554 123.696 173.794 123.546 174.034 123.426C174.873 122.946 175.654 122.466 176.494 122.046C176.823 121.866 177.214 121.686 177.574 121.626C178.144 121.506 178.564 121.746 178.654 122.346C178.744 122.706 178.744 123.126 178.684 123.486C178.594 124.385 179.015 124.595 179.794 124.355C180.33 124.236 181.042 123.883 181.551 123.701C181.562 123.68 181.572 123.657 181.585 123.636C182.335 122.136 183.565 121.086 185.305 120.636C186.055 120.456 186.835 120.306 187.645 120.216C188.455 120.066 189.266 120.006 190.076 119.916ZM239.939 123.936C238.56 125.585 240.33 126.395 241.11 124.686C240.48 124.686 240.059 124.505 239.939 123.936ZM204.694 120.756C204.814 120.726 205.024 120.726 205.144 120.786C205.234 120.906 205.294 121.057 205.264 121.236C205.234 121.446 205.144 121.626 205.024 121.836C204.783 122.347 203.225 125.225 205.054 124.686C205.534 124.566 206.104 124.206 206.674 123.936C206.824 123.875 207.004 123.726 207.184 123.756C207.394 123.816 207.544 124.056 207.274 124.176C206.374 125.016 203.225 126.455 203.224 124.386C203.224 124.056 203.284 123.726 203.344 123.336C202.324 123.966 201.364 124.626 200.314 125.166C200.074 125.346 199.744 125.376 199.474 125.406C199.084 125.466 198.724 125.345 198.544 125.016C198.335 124.656 198.425 124.326 198.634 124.026C198.814 123.786 198.965 123.605 199.205 123.396C200.254 122.496 201.485 122.016 202.924 122.136C203.134 122.166 203.374 122.105 203.554 121.896C203.824 121.626 204.094 121.325 204.364 121.056C204.454 120.936 204.574 120.786 204.694 120.756ZM164.864 122.736C163.664 122.826 162.164 123.516 161.474 124.536C162.644 124.326 164.054 123.516 164.864 122.736ZM202.774 122.736C201.574 122.826 200.074 123.516 199.384 124.536C200.554 124.326 201.964 123.516 202.774 122.736ZM242.49 121.956C241.74 122.196 241.259 122.616 240.929 123.186C240.839 123.335 240.809 123.516 241.019 123.666C241.259 123.906 241.799 123.875 241.95 123.546C242.19 123.216 242.37 122.795 242.49 122.436C242.549 122.375 242.49 122.195 242.49 121.956ZM262.827 118.836C263.157 118.836 263.337 119.076 263.277 119.346C263.187 119.646 262.767 120.066 262.377 120.306C261.808 120.635 261.597 120.605 261.747 119.855C261.807 119.376 262.137 118.836 262.827 118.836ZM232.952 112.865C231.662 113.765 230.491 114.756 229.441 115.866C230.611 115.236 232.651 113.465 232.952 112.865ZM38.0269 95.4756H96.2505V36.7646H38.0269V95.4756ZM97.2505 95.4756H300.622V36.7646H97.2505V95.4756ZM86.606 85.4727L85.8989 86.1797L47.772 48.0527L48.479 47.3457L86.606 85.4727ZM146.119 71.0703H146.22L149.186 63.8262H150.448V72.5537H149.459V65.9229H149.374L146.647 72.5537H145.692L142.965 65.9229H142.879V72.5537H141.891V63.8262H143.153L146.119 71.0703ZM165.034 64.7637H160.824V67.7129H164.761V68.6504H160.824V71.6162H165.102V72.5537H159.767V63.8262H165.034V64.7637ZM179.406 64.7637H175.196V67.7129H179.133V68.6504H175.196V71.6162H179.474V72.5537H174.138V63.8262H179.406V64.7637ZM193.744 64.7637H189.567V67.7129H193.351V68.6504H189.567V72.5537H188.51V63.8262H193.744V64.7637ZM203.81 71.6162H207.867V72.5537H202.753V63.8262H203.81V71.6162ZM221.97 64.7637H217.76V67.7129H221.698V68.6504H217.76V71.6162H222.039V72.5537H216.704V63.8262H221.97V64.7637ZM236.342 64.7637H232.132V67.7129H236.07V68.6504H232.132V71.6162H236.411V72.5537H231.076V63.8262H236.342V64.7637ZM251.515 64.7637H248.771V72.5537H247.714V64.7637H244.97V63.8262H251.515V64.7637Z" fill="black"/>
</svg>
